# xmcd
#
# Track frame offsets:
#	150
#	21143
#	37888
#	54621
#	68831
#	82140
#	103963
#	120001
#	141245
#	160753
#	177447
#	198431
#	211988
#
# Disc length: 3086 seconds
# Revision: 1
# Processed by: cddbd v1.5.2PL0 Copyright (c) Steve Scherf et al.
# Submitted via: dBpowerAMP V12.0
#
DISCID=b20c0c0d
DTITLE=Lukas Nelson and Promise of the Real - Turn Off The News (Build A Garden)
DYEAR=2019
DGENRE=Americana
TTITLE0=Bad Case
TTITLE1=Turn Off The News (Build A Garden)
TTITLE2=Where Does Love Go
TTITLE3=Save A Little Heartache
TTITLE4=Lotta Fun
TTITLE5=Civilized Hell
TTITLE6=Mystery
TTITLE7=Simple Life
TTITLE8=Out In LA
TTITLE9=Something Real
TTITLE10=Stars Made Of You
TTITLE11=Turn Off The News (Build A Garden) (Acoustic)
TTITLE12=Consider It Heaven
EXTD=
EXTT0=
EXTT1=
EXTT2=
EXTT3=
EXTT4=
EXTT5=
EXTT6=
EXTT7=
EXTT8=
EXTT9=
EXTT10=
EXTT11=
EXTT12=
PLAYORDER=
